<?xml version="1.0" encoding="UTF-8"?>
<svg width="131px" height="32px" viewBox="0 0 131 32" version="1.1" xmlns="http://www.w3.org/2000/svg" xmlns:xlink="http://www.w3.org/1999/xlink">
    <!-- Generator: sketchtool 53.2 (72643) - https://sketchapp.com -->
    <title>6F9481C2-8DC4-4A25-BAD5-4777EA14C4E5</title>
    <desc>Created with sketchtool.</desc>
    <g id="login" stroke="none" stroke-width="1" fill="none" fill-rule="evenodd">
        <g id="signin" transform="translate(-95.000000, -50.000000)" fill-rule="nonzero">
            <g id="B2BX_exchange_logo-Copy" transform="translate(95.000000, 50.000000)">
                <g id="Group" fill="#E8EAEB">
                    <polygon id="Shape" points="30.9263133 7.69802134 25.1488702 13.4377741 25.1488702 24.9848061 11.6228562 24.9848061 11.6228562 19.2450533 0 30.7245588 30.9263133 30.7245588"></polygon>
                    <polygon id="Rectangle-path" transform="translate(12.540450, 12.529273) rotate(-90.000000) translate(-12.540450, -12.529273) " points="9.67316733 9.63793798 15.4077329 9.63793798 15.4077329 15.4206071 9.67316733 15.4206071"></polygon>
                    <path d="M42.0733801,0 L54.3079656,0 C56.2111233,0 57.6384917,0.405159018 58.5900705,1.28300356 C59.4736795,2.16084809 59.9494689,3.51137815 59.9494689,5.26706723 C59.9494689,6.41501778 59.6775892,7.42791532 59.2017998,8.10318035 C58.6580404,8.84597189 58.0463112,9.31865741 57.2986421,9.65628992 C58.8619502,10.0614489 59.9494689,11.141873 60.5611982,12.8300356 C60.7651079,13.4377741 60.8330779,14.1130391 60.8330779,14.9233572 C60.8330779,16.8140992 60.3572884,18.2321558 59.4736795,19.1775268 C58.5900705,20.0553714 57.1627022,20.5280569 55.1915746,20.5280569 L42.0733801,20.5280569 L42.0733801,0 Z M54.5798453,5.87480576 C54.5798453,4.72685521 53.968116,4.11911668 52.8126274,4.11911668 L47.3750338,4.11911668 L47.3750338,8.23823336 L52.8126274,8.23823336 C53.968116,8.23823336 54.5798453,7.63049483 54.5798453,6.48254428 L54.5798453,5.87480576 Z M55.4634542,14.1130391 C55.4634542,12.9650886 54.851725,12.35735 53.6962363,12.35735 L47.3750338,12.35735 L47.3750338,16.4764667 L53.6962363,16.4764667 C54.851725,16.4764667 55.4634542,15.8687282 55.4634542,14.7207776 L55.4634542,14.1130391 Z" id="Shape"></path>
                    <path d="M88.2929253,0 L100.527511,0 C102.430669,0 103.858037,0.405159018 104.809616,1.28300356 C105.693225,2.16084809 106.169014,3.51137815 106.169014,5.26706723 C106.169014,6.41501778 105.897134,7.42791532 105.421345,8.10318035 C104.877586,8.84597189 104.265856,9.31865741 103.518187,9.65628992 C105.081495,10.0614489 105.829165,11.141873 106.372924,12.8300356 C106.576834,13.4377741 106.644804,14.1130391 106.644804,14.9233572 C106.644804,16.8140992 106.576834,18.2321558 105.693225,19.1775268 C104.809616,20.0553714 103.382247,20.5280569 101.41112,20.5280569 L88.2929253,20.5280569 L88.2929253,0 L88.2929253,0 Z M100.79939,5.87480576 C100.79939,4.72685521 100.187661,4.11911668 99.0321726,4.11911668 L93.594579,4.11911668 L93.594579,8.23823336 L99.0321726,8.23823336 C100.187661,8.23823336 100.79939,7.63049483 100.79939,6.48254428 L100.79939,5.87480576 Z M101.682999,14.1130391 C101.682999,12.9650886 101.07127,12.35735 99.9157815,12.35735 L93.594579,12.35735 L93.594579,16.4764667 L99.9157815,16.4764667 C101.07127,16.4764667 101.682999,15.8687282 101.682999,14.7207776 L101.682999,14.1130391 Z" id="Shape"></path>
                    <polygon id="Shape" points="124.520892 0 130.638185 0 123.705253 10.2640284 130.706155 20.5280569 124.588862 20.5280569 120.306757 14.0455126 116.024652 20.5280569 109.90736 20.5280569 116.908261 10.2640284 110.179239 0 116.228562 0 120.374727 6.48254428"></polygon>
                    <path d="M80.2045049,10.8042405 C81.6318732,9.58876342 82.3115724,8.17070686 82.3115724,6.48254428 L82.3115724,5.87480576 C82.3115724,3.84901067 81.835783,2.2959011 80.8842041,1.41805656 C79.9326252,0.472685521 78.437287,-4.4408921e-16 76.3981894,-4.4408921e-16 L70.5527763,-4.4408921e-16 C67.9019495,-4.4408921e-16 65.794882,2.09332159 65.794882,4.72685521 L65.794882,5.60469975 L71.0965357,5.60469975 L71.0965357,5.46964674 C71.0965357,4.72685521 71.708265,4.11911668 72.4559341,4.11911668 L75.2427008,4.11911668 C76.1942796,4.11911668 77.0099187,4.92943472 77.0099187,5.87480576 L77.0099187,5.87480576 C77.0099187,6.7526503 76.6020992,7.63049483 75.8544301,8.17070686 L66.8824007,13.9779861 C66.0667617,14.5857246 65.5909722,15.5310957 65.5909722,16.5439932 L65.5909722,20.5280569 L82.3795423,20.5280569 L82.3795423,16.4089402 L71.640295,16.4089402 L78.8451065,11.8846645 C79.3208959,11.547032 79.7287155,11.141873 80.2045049,10.8042405 Z" id="Shape"></path>
                </g>
                <g id="Group" fill="#00A275">
                    <polygon id="Shape" points="0 23.2901087 5.78324613 17.4335317 5.78324613 5.78847731 19.3908841 5.78847731 19.3908841 11.6450543 30.9573763 0 0 0"></polygon>
                    <polygon id="Rectangle-path" transform="translate(18.404330, 18.409809) rotate(-90.000000) translate(-18.404330, -18.409809) " points="15.5127074 15.5155708 21.2959535 15.5155708 21.2959535 21.3040481 15.5127074 21.3040481"></polygon>
                    <g transform="translate(42.183678, 25.196901)" id="Shape">
                        <polygon points="0.136076379 5.85657704 0.136076379 0.068099733 4.21836776 0.068099733 4.21836776 1.15769546 1.36076379 1.15769546 1.36076379 2.45159039 4.08229138 2.45159039 4.08229138 3.47308638 1.2927256 3.47308638 1.2927256 4.76698131 4.15032957 4.76698131 4.15032957 5.85657704"></polygon>
                        <polygon points="15.1725163 5.85657704 13.7437143 3.74548532 12.2468741 5.85657704 10.750034 5.85657704 12.8592179 2.86018879 10.8861104 0.136199466 12.3829505 0.136199466 13.6756761 2.11109172 14.9684017 0.136199466 16.4652419 0.136199466 14.4921344 2.92828852 16.6013183 5.92467677 15.1725163 5.92467677"></polygon>
                        <path d="M22.8608317,2.99638825 C22.8608317,1.22579519 24.1535573,0 25.9225503,0 C27.2152759,0 27.8956578,0.68099733 28.3038869,1.43009439 L27.2152759,2.04299199 C27.0111613,1.56629386 26.3988176,1.22579519 25.7864739,1.22579519 C24.7659011,1.22579519 24.017481,2.04299199 24.017481,3.13258772 C24.017481,4.22218345 24.8339392,5.03938024 25.7864739,5.03938024 C26.3988176,5.03938024 26.8750849,4.63078185 27.2152759,4.22218345 L28.3038869,4.69888158 C27.8956578,5.37987891 27.2152759,6.12897597 25.9225503,6.12897597 C24.1535573,5.99277651 22.8608317,4.76698131 22.8608317,2.99638825 Z"></path>
                        <polygon points="39.0539209 5.85657704 39.0539209 3.47308638 36.3323933 3.47308638 36.3323933 5.85657704 35.1077059 5.85657704 35.1077059 0.068099733 36.3323933 0.068099733 36.3323933 2.38349066 39.0539209 2.38349066 39.0539209 0.068099733 40.2786083 0.068099733 40.2786083 5.85657704"></polygon>
                        <path d="M51.640986,5.85657704 L51.2327569,4.83508105 L48.7153438,4.83508105 L48.3071147,5.85657704 L46.9463509,5.85657704 L49.123573,0.068099733 L50.6204131,0.068099733 L52.7976352,5.85657704 L51.640986,5.85657704 Z M50.0080694,1.43009439 L49.123573,3.94978452 L50.8925659,3.94978452 L50.0080694,1.43009439 Z"></path>
                        <polygon points="63.6837456 5.85657704 60.962218 2.04299199 60.962218 5.85657704 59.7375306 5.85657704 59.7375306 0.068099733 61.0302562 0.068099733 63.7517838 3.67738558 63.7517838 0.068099733 64.9764712 0.068099733 64.9764712 5.85657704"></polygon>
                        <path d="M71.9844047,2.99638825 C71.9844047,1.22579519 73.4132067,0 75.0461233,0 C76.2708107,0 77.0192308,0.612897597 77.4274599,1.29389493 L76.406887,1.90679252 C76.1347343,1.49819413 75.5904288,1.08959573 74.9780851,1.08959573 C73.9575122,1.08959573 73.2090921,1.90679252 73.2090921,2.99638825 C73.2090921,4.08598398 74.0255504,4.90318078 74.9780851,4.90318078 C75.4543524,4.90318078 75.9986579,4.69888158 76.2027725,4.49458238 L76.2027725,3.81358505 L74.7059323,3.81358505 L74.7059323,2.72398932 L77.4274599,2.72398932 L77.4274599,4.90318078 C76.8151162,5.58417811 75.9986579,5.99277651 74.9100469,5.99277651 C73.3451685,5.99277651 71.9844047,4.90318078 71.9844047,2.99638825 Z"></path>
                        <polygon points="84.7075462 5.85657704 84.7075462 0.068099733 88.7898376 0.068099733 88.7898376 1.15769546 85.9322336 1.15769546 85.9322336 2.45159039 88.7217994 2.45159039 88.7217994 3.47308638 85.9322336 3.47308638 85.9322336 4.76698131 88.7898376 4.76698131 88.7898376 5.85657704"></polygon>
                    </g>
                </g>
            </g>
        </g>
    </g>
</svg>