<?xml version="1.0" encoding="UTF-8"?>
<svg width="60px" height="60px" viewBox="0 0 60 60" version="1.1" xmlns="http://www.w3.org/2000/svg" xmlns:xlink="http://www.w3.org/1999/xlink">
    <!-- Generator: sketchtool 53.2 (72643) - https://sketchapp.com -->
    <title>29C04E92-CC4A-48FF-865B-417ACD489BE6</title>
    <desc>Created with sketchtool.</desc>
    <g id="login" stroke="none" stroke-width="1" fill="none" fill-rule="evenodd">
        <g id="signin-copy-6" transform="translate(-690.000000, -354.000000)" fill="#00A275" fill-rule="nonzero">
            <g id="verified" transform="translate(690.000000, 354.000000)">
                <path d="M51.2131641,8.78671875 C45.5469141,3.12058594 38.0132812,0 30,0 C21.9866016,0 14.4528516,3.12058594 8.78671875,8.78671875 C3.12046875,14.4529688 0,21.9867188 0,30 C0,38.0132812 3.12046875,45.5469141 8.78671875,51.2131641 C14.4529688,56.8794141 21.9866016,60 30,60 C38.0132812,60 45.5469141,56.8794141 51.2131641,51.2131641 C56.8794141,45.5469141 60,38.0132812 60,30 C60,21.9867188 56.8794141,14.4530859 51.2131641,8.78671875 Z M30,56.484375 C15.3964453,56.484375 3.515625,44.6035547 3.515625,30 C3.515625,15.3964453 15.3964453,3.515625 30,3.515625 C44.6035547,3.515625 56.484375,15.3964453 56.484375,30 C56.484375,44.6035547 44.6035547,56.484375 30,56.484375 Z" id="Shape"></path>
                <path d="M44.3326172,20.3741016 C43.64625,19.6878516 42.5332031,19.6878516 41.8468359,20.3742188 L26.3242969,35.8967578 L18.1531641,27.725625 C17.4667969,27.0392578 16.35375,27.0392578 15.6672656,27.725625 C14.9807812,28.4119922 14.9807812,29.5250391 15.6672656,30.2115234 L25.0812891,39.6255469 C25.4245312,39.9687891 25.8744141,40.1403516 26.3241797,40.1403516 C26.7739453,40.1403516 27.2239453,39.9686719 27.5670703,39.6255469 L44.3326172,22.86 C45.0191016,22.1736328 45.0191016,21.0605859 44.3326172,20.3741016 Z" id="Path"></path>
            </g>
        </g>
    </g>
</svg>